<svg width="31" height="43" viewBox="0 0 31 43" fill="none" xmlns="http://www.w3.org/2000/svg">
<path d="M0.860795 39.9575V31.2302H4.13352C4.80398 31.2302 5.36648 31.3552 5.82102 31.6052C6.27841 31.8552 6.62358 32.199 6.85653 32.6365C7.09233 33.0712 7.21023 33.5655 7.21023 34.1195C7.21023 34.6791 7.09233 35.1763 6.85653 35.6109C6.62074 36.0456 6.27273 36.3879 5.8125 36.6379C5.35227 36.8851 4.78551 37.0087 4.11222 37.0087H1.94318V35.7089H3.89915C4.29119 35.7089 4.61222 35.6408 4.86222 35.5044C5.11222 35.368 5.29688 35.1805 5.41619 34.9419C5.53835 34.7033 5.59943 34.4291 5.59943 34.1195C5.59943 33.8098 5.53835 33.5371 5.41619 33.3013C5.29688 33.0655 5.1108 32.8822 4.85795 32.7516C4.60795 32.618 4.28551 32.5513 3.89062 32.5513H2.44176V39.9575H0.860795ZM8.63527 39.9575V33.4121H10.131V34.503H10.1992C10.3185 34.1251 10.5231 33.8339 10.8128 33.6294C11.1054 33.422 11.4392 33.3183 11.8142 33.3183C11.8995 33.3183 11.9946 33.3226 12.0998 33.3311C12.2077 33.3368 12.2972 33.3467 12.3682 33.3609V34.78C12.3029 34.7572 12.1992 34.7373 12.0571 34.7203C11.9179 34.7004 11.783 34.6905 11.6523 34.6905C11.3711 34.6905 11.1182 34.7516 10.8938 34.8737C10.6722 34.993 10.4975 35.1592 10.3696 35.3723C10.2418 35.5854 10.1779 35.8311 10.1779 36.1095V39.9575H8.63527ZM16.0987 40.0854C15.4595 40.0854 14.9055 39.9447 14.4367 39.6635C13.968 39.3822 13.6043 38.9888 13.3458 38.4831C13.0901 37.9774 12.9623 37.3865 12.9623 36.7104C12.9623 36.0342 13.0901 35.4419 13.3458 34.9334C13.6043 34.4248 13.968 34.03 14.4367 33.7487C14.9055 33.4675 15.4595 33.3268 16.0987 33.3268C16.7379 33.3268 17.2918 33.4675 17.7606 33.7487C18.2293 34.03 18.5916 34.4248 18.8472 34.9334C19.1058 35.4419 19.235 36.0342 19.235 36.7104C19.235 37.3865 19.1058 37.9774 18.8472 38.4831C18.5916 38.9888 18.2293 39.3822 17.7606 39.6635C17.2918 39.9447 16.7379 40.0854 16.0987 40.0854ZM16.1072 38.8496C16.4538 38.8496 16.7436 38.7544 16.9765 38.5641C17.2095 38.3709 17.3828 38.1123 17.4964 37.7885C17.6129 37.4646 17.6711 37.1038 17.6711 36.7061C17.6711 36.3055 17.6129 35.9433 17.4964 35.6195C17.3828 35.2927 17.2095 35.0328 16.9765 34.8396C16.7436 34.6464 16.4538 34.5498 16.1072 34.5498C15.7521 34.5498 15.4566 34.6464 15.2208 34.8396C14.9879 35.0328 14.8132 35.2927 14.6967 35.6195C14.583 35.9433 14.5262 36.3055 14.5262 36.7061C14.5262 37.1038 14.583 37.4646 14.6967 37.7885C14.8132 38.1123 14.9879 38.3709 15.2208 38.5641C15.4566 38.7544 15.7521 38.8496 16.1072 38.8496ZM23.9797 33.4121V34.6052H20.1104V33.4121H23.9797ZM21.0777 39.9575V32.7942C21.0777 32.3538 21.1686 31.9873 21.3504 31.6947C21.5351 31.4021 21.7822 31.1834 22.0919 31.0385C22.4015 30.8936 22.7453 30.8212 23.1231 30.8212C23.3902 30.8212 23.6274 30.8425 23.8348 30.8851C24.0422 30.9277 24.1956 30.966 24.295 31.0001L23.9882 32.1933C23.9229 32.1734 23.8405 32.1535 23.741 32.1337C23.6416 32.1109 23.5308 32.0996 23.4087 32.0996C23.1217 32.0996 22.9186 32.1692 22.7993 32.3084C22.6828 32.4447 22.6246 32.6408 22.6246 32.8964V39.9575H21.0777ZM25.3078 39.9575V33.4121H26.8504V39.9575H25.3078ZM26.0833 32.4831C25.839 32.4831 25.6288 32.4021 25.4527 32.2402C25.2765 32.0754 25.1885 31.878 25.1885 31.6479C25.1885 31.4149 25.2765 31.2175 25.4527 31.0555C25.6288 30.8908 25.839 30.8084 26.0833 30.8084C26.3305 30.8084 26.5407 30.8908 26.714 31.0555C26.8902 31.2175 26.9782 31.4149 26.9782 31.6479C26.9782 31.878 26.8902 32.0754 26.714 32.2402C26.5407 32.4021 26.3305 32.4831 26.0833 32.4831ZM30.0993 31.2302V39.9575H28.5567V31.2302H30.0993Z" fill="url(#paint0_linear_665_1203)"/>
<path d="M18.75 3.75C18.75 4.74456 18.3549 5.69839 17.6516 6.40165C16.9484 7.10491 15.9945 7.5 15 7.5C14.0054 7.5 13.0516 7.10491 12.3483 6.40165C11.6451 5.69839 11.25 4.74456 11.25 3.75C11.25 2.75544 11.6451 1.80161 12.3483 1.09835C13.0516 0.395088 14.0054 0 15 0C15.9945 0 16.9484 0.395088 17.6516 1.09835C18.3549 1.80161 18.75 2.75544 18.75 3.75ZM7.50098 17.868C7.53311 15.9004 8.33731 14.0242 9.74015 12.644C11.143 11.2639 13.0321 10.4905 15 10.4905C16.9679 10.4905 18.857 11.2639 20.2598 12.644C21.6626 14.0242 22.4668 15.9004 22.499 17.868C20.1464 18.9468 17.5881 19.5035 15 19.5C12.324 19.5 9.78398 18.916 7.50098 17.868Z" fill="url(#paint1_linear_665_1203)"/>
<defs>
<linearGradient id="paint0_linear_665_1203" x1="0" y1="35.4575" x2="31" y2="35.4575" gradientUnits="userSpaceOnUse">
<stop stop-color="#FF7E00"/>
<stop offset="1" stop-color="#E8563A"/>
</linearGradient>
<linearGradient id="paint1_linear_665_1203" x1="7.50098" y1="9.75001" x2="22.499" y2="9.75001" gradientUnits="userSpaceOnUse">
<stop stop-color="#FF7E00"/>
<stop offset="1" stop-color="#E8563A"/>
</linearGradient>
</defs>
</svg>
